<svg width="98" height="134" viewBox="0 0 98 134" fill="none" xmlns="http://www.w3.org/2000/svg">
<path d="M46.3298 134.396H56.5208V95.6051L46.3298 107.325V134.396Z" fill="#485E75" fill-opacity="0.5"/>
<path d="M27.6751 124.191C26.0739 124.191 24.5157 123.75 23.1644 122.934V134.396H33.3565V122.084C31.7857 123.431 29.7803 124.191 27.6751 124.191Z" fill="#485E75" fill-opacity="0.5"/>
<path d="M4.9821 103.925C4.82041 101.597 5.57113 99.3502 7.09569 97.5957L10.192 94.0342V10.9816C10.192 8.64334 8.4176 6.73345 6.24626 6.73345H9.69856C10.1962 6.73345 10.6005 7.13979 10.6005 7.63537V8.77984C10.6005 9.27648 11.0079 9.68176 11.5024 9.68176H21.2188C21.7165 9.68176 22.1218 9.27543 22.1218 8.77984V7.63537C22.1218 7.13874 22.5292 6.73345 23.0237 6.73345H27.1091C24.9399 6.73345 23.1634 8.64334 23.1634 10.9816V79.1152L33.3554 67.3954V10.9816C33.3554 8.64334 31.581 6.73345 29.4096 6.73345H33.4972C33.9917 6.73345 34.3991 7.13979 34.3991 7.63537V8.77984C34.3991 9.27648 34.8044 9.68176 35.301 9.68176H45.0174C45.513 9.68176 45.9193 9.27543 45.9193 8.77984V7.63537C45.9193 7.13874 46.3257 6.73345 46.8213 6.73345H50.2715C48.1033 6.73345 46.3267 8.64334 46.3267 10.9816V52.4764L56.1093 41.2249C56.2384 41.0758 56.3802 40.9414 56.5177 40.8049V10.9816C56.5177 8.64334 54.7443 6.73345 52.5719 6.73345H51.1524C51.649 6.73345 52.0543 6.32711 52.0543 5.83153V3.85234C52.0543 3.3557 51.648 2.95041 51.1524 2.95041H46.8202C46.3236 2.95041 45.9183 2.54302 45.9183 2.04744V0.902973C45.9183 0.406338 45.5109 0 45.0164 0H35.3C34.8023 0 34.398 0.407388 34.398 0.902973V2.04639C34.398 2.54302 33.9896 2.94936 33.4961 2.94936H29.1608C28.6652 2.94936 28.2589 3.3557 28.2589 3.85129C28.2589 3.35465 27.8525 2.94936 27.3569 2.94936H23.0237C22.5281 2.94936 22.1218 2.54197 22.1218 2.04639V0.902973C22.1218 0.406338 21.7155 0 21.2188 0H11.5024C11.0068 0 10.6005 0.407388 10.6005 0.902973V2.04639C10.6005 2.54302 10.1952 2.94936 9.69856 2.94936H5.36534C4.86765 2.94936 4.46342 3.3557 4.46342 3.85129V5.83048C4.46342 6.32711 4.8687 6.7324 5.36534 6.7324H3.94578C1.77655 6.7324 0 8.64229 0 10.9806V134.396H10.192V111.838L7.95457 109.896C6.20112 108.371 5.14485 106.251 4.9821 103.925ZM28.261 5.83153C28.261 6.32816 28.6684 6.73345 29.1629 6.73345H27.358C27.8546 6.73345 28.261 6.32711 28.261 5.83153Z" fill="#485E75" fill-opacity="0.5"/>
<path d="M97.0696 23.637L95.0022 21.8437C93.8788 20.8682 92.1579 20.989 91.1793 22.1125L69.9762 46.4969L66.0472 43.0856C63.9263 41.245 60.6829 41.4749 58.8392 43.5927L36.9064 68.814L14.8518 94.1781L9.82033 99.9645C7.97449 102.087 8.20233 105.328 10.3233 107.17L24.333 119.337C26.455 121.179 29.6983 120.949 31.5442 118.828L80.5609 62.4575C82.4068 60.3366 82.1811 57.0943 80.058 55.2516L76.1332 51.8434L97.3395 27.4536C98.317 26.3291 98.1952 24.6114 97.0696 23.637Z" fill="#485E75" fill-opacity="0.5"/>
<path d="M78.185 115.47C85.299 115.47 91.066 109.703 91.066 102.589C91.066 95.4752 85.299 89.7081 78.185 89.7081C71.071 89.7081 65.304 95.4752 65.304 102.589C65.304 109.703 71.071 115.47 78.185 115.47Z" fill="#485E75" fill-opacity="0.5"/>
</svg>
